HIERARCHY
ROOT Hips
{
	OFFSET -0.179506 -22.333345 2.821913
	CHANNELS 6 Xposition Yposition Zposition Zrotation Yrotation Xrotation 
	JOINT LeftUpLeg
	{
		OFFSET 6.951974 -9.140623 -0.681533
		CHANNELS 3 Zrotation Yrotation Xrotation
		JOINT LeftLeg
		{
			OFFSET 3.427654 -37.519855 -0.449580
			CHANNELS 3 Zrotation Yrotation Xrotation
			JOINT LeftFoot
			{
				OFFSET -1.359570 -39.796059 -4.369333
				CHANNELS 3 Zrotation Yrotation Xrotation
				JOINT LeftToe
				{
					OFFSET 2.635814 -5.579078 11.928840
					CHANNELS 3 Zrotation Yrotation Xrotation
					End Site
					{
						OFFSET 0.000000 0.000000 0.000000
					}
				}
			}
		}
	}
	JOINT RightUpLeg
	{
		OFFSET -6.767048 -9.052170 -0.431982
		CHANNELS 3 Zrotation Yrotation Xrotation
		JOINT RightLeg
		{
			OFFSET -3.829005 -38.256897 -0.885003
			CHANNELS 3 Zrotation Yrotation Xrotation
			JOINT RightFoot
			{
				OFFSET 1.577377 -39.841461 -4.231180
				CHANNELS 3 Zrotation Yrotation Xrotation
				JOINT RightToe
				{
					OFFSET -2.537174 -4.814398 12.334795
					CHANNELS 3 Zrotation Yrotation Xrotation
					End Site
					{
						OFFSET 0.000000 0.000000 0.000000
					}
				}
			}
		}
	}
	JOINT Spine
	{
		OFFSET -0.253288 10.896323 -2.669631
		CHANNELS 3 Zrotation Yrotation Xrotation
		JOINT Spine1
		{
			OFFSET 0.548704 13.518043 0.109247
			CHANNELS 3 Zrotation Yrotation Xrotation
			JOINT Spine2
			{
				OFFSET 0.145701 5.292222 2.542457
				CHANNELS 3 Zrotation Yrotation Xrotation
				JOINT Neck
				{
					OFFSET -0.277840 21.387037 -4.285703
					CHANNELS 3 Zrotation Yrotation Xrotation
					JOINT Head
					{
						OFFSET 0.515184 6.496960 5.134897
						CHANNELS 3 Zrotation Yrotation Xrotation
						End Site
						{
							OFFSET 0.000000 0.000000 0.000000
						}
					}
				}
				JOINT LeftShoulder
				{
					OFFSET 7.884473 12.174932 -3.408961
					CHANNELS 3 Zrotation Yrotation Xrotation
					JOINT LeftArm
					{
						OFFSET 9.097692 3.046888 -0.886815
						CHANNELS 3 Zrotation Yrotation Xrotation
						JOINT LeftForeArm
						{
							OFFSET 25.961220 -1.277207 -2.745643
							CHANNELS 3 Zrotation Yrotation Xrotation
							JOINT LeftHand
							{
								OFFSET 24.923361 0.898606 -0.117091
								CHANNELS 3 Zrotation Yrotation Xrotation
								End Site
								{
									OFFSET 0.000000 0.000000 0.000000
								}
							}
						}
					}
				}
				JOINT RightShoulder
				{
					OFFSET -8.175920 11.883285 -3.861528
					CHANNELS 3 Zrotation Yrotation Xrotation
					JOINT RightArm
					{
						OFFSET -9.601238 3.255117 -0.914307
						CHANNELS 3 Zrotation Yrotation Xrotation
						JOINT RightForeArm
						{
							OFFSET -25.374195 -1.332924 -2.140099
							CHANNELS 3 Zrotation Yrotation Xrotation
							JOINT RightHand
							{
								OFFSET -25.529810 0.777228 -0.555919
								CHANNELS 3 Zrotation Yrotation Xrotation
								End Site
								{
									OFFSET 0.000000 0.000000 0.000000
								}
							}
						}
					}
				}
			}
		}
	}
}
MOTION
Frames: 13
Frame Time: 0.033333
76.673149 -94.209305 87.625999 -118.724278 1.208014 81.757713 4.824901 0.926729 22.062594 -8.078396 -15.643765 29.933542 -1.884312 9.290045 -23.467484 nan nan nan -4.761604 -2.714289 -19.621831 3.934430 -12.380249 20.474733 3.691179 -10.989123 -8.415140 nan nan nan 1.472824 -6.943329 10.229075 4.378257 -3.401880 4.278338 -0.071794 -4.586294 1.775286 1.137496 2.788250 13.961055 -3.166854 -2.639307 21.768516 -25.770543 -0.115523 5.083915 -48.871527 -14.506128 14.801873 5.551705 -52.784319 8.390337 3.591047 -15.116274 -12.733105 29.927687 -1.324988 3.351954 54.805925 -5.792892 13.215142 -12.236333 17.671956 -3.251278 11.744128 5.622103 0.154120 
75.907120 -93.328529 87.797165 -119.125873 1.350099 81.365167 5.195899 0.849873 21.797074 -8.417459 -13.999028 32.445525 -2.389033 9.024771 -22.088764 nan nan nan -4.344695 -2.354955 -18.744489 4.069037 -12.373973 21.068111 3.060742 -10.850058 -8.460955 nan nan nan 1.512059 -6.743650 10.205172 4.513878 -3.325273 4.738669 0.020152 -4.409443 1.785593 1.100296 2.666332 13.885757 -3.254702 -2.669779 21.826685 -25.875393 -0.155841 4.992479 -49.273956 -14.451159 14.641521 5.468909 -52.047196 8.165671 3.305257 -15.281212 -12.728009 30.000397 -1.218049 3.412233 54.445137 -5.368762 12.893195 -12.149752 17.347103 -3.263193 11.715696 5.521651 0.295171 
75.163330 -92.453575 87.945404 -119.590500 1.385732 81.028815 5.381133 0.700239 21.381925 -8.742167 -12.527484 34.937027 -2.639858 8.660251 -20.308022 nan nan nan -3.911343 -1.953486 -17.999130 3.993556 -12.313648 21.744093 2.369478 -10.832395 -8.400471 nan nan nan 1.452364 -6.481404 10.335302 4.652143 -3.217395 5.006462 0.091002 -4.256776 1.702169 1.111069 2.458762 13.899534 -3.333229 -2.777890 21.998057 -25.948928 -0.176522 5.039574 -49.667670 -14.186272 14.678611 5.687977 -51.624455 8.032327 2.969309 -15.037731 -12.659313 30.025337 -0.951786 3.605850 54.269965 -5.185397 12.722346 -12.209045 17.280481 -3.293203 11.479324 5.488994 0.083042 
74.435165 -91.619011 88.069229 -119.970097 1.351628 80.806588 5.408014 0.569738 20.605352 -8.971544 -11.163173 37.635973 -2.595655 8.412839 -18.340345 nan nan nan -3.531909 -1.660438 -17.403765 3.861208 -12.104301 22.378680 1.702896 -10.831737 -8.398969 nan nan nan 1.427739 -6.233839 10.463936 4.733237 -3.166806 5.151004 0.093603 -4.062817 1.631506 1.131144 2.249828 13.937596 -3.324416 -2.922875 22.132561 -25.962869 -0.206664 5.107222 -50.020629 -13.925110 14.783876 5.848970 -51.237670 8.037130 2.595979 -14.526774 -13.307368 30.010690 -0.751529 3.841870 54.219485 -4.901778 12.581646 -12.375301 17.214502 -3.328664 11.240986 5.386927 -0.231773 
73.745407 -90.800980 88.179794 -120.276073 1.258247 80.763296 5.370516 0.420492 19.438235 -9.226651 -9.917158 40.467087 -2.829655 8.334507 -16.299696 nan nan nan -3.212306 -1.569959 -17.075365 3.707902 -11.795756 23.107414 1.088457 -10.705912 -8.853052 nan nan nan 1.345126 -5.919629 10.509558 4.787863 -3.185015 5.226374 0.107094 -3.837316 1.550327 1.164496 2.035350 13.999995 -3.224584 -2.993301 22.106148 -25.968373 -0.273851 5.145814 -50.293900 -13.505160 14.969469 5.719946 -51.009402 8.370935 3.116492 -13.957753 -13.615832 30.078783 -0.561045 4.142058 54.099067 -4.657560 12.386125 -12.473233 17.388993 -3.386049 10.670789 5.240388 -0.594215 
73.092850 -89.991882 88.296257 -120.551091 1.172192 80.789325 5.363511 0.280235 18.057260 -9.397756 -8.633367 43.236252 -3.307798 8.335947 -14.247233 nan nan nan -2.845666 -1.473529 -16.798534 3.479611 -11.486224 23.785684 0.453029 -10.676099 -9.566826 nan nan nan 1.240960 -5.546871 10.600965 4.861524 -3.168779 5.233842 0.142121 -3.655346 1.566017 1.074269 2.025888 13.916820 -2.922707 -2.991417 21.868723 -25.955242 -0.301440 4.992672 -50.672890 -13.119479 15.282789 5.478804 -50.685850 8.808789 3.783445 -13.514486 -13.781564 30.168119 -0.349906 4.165706 53.923248 -4.464340 12.350959 -12.432964 17.513982 -3.377007 10.309458 5.255512 -1.096008 
72.460167 -89.187614 88.418381 -120.708295 1.165833 80.800178 5.459676 0.110922 16.568040 -9.296997 -7.208465 45.864412 -3.485676 8.527158 -12.502115 nan nan nan -2.470932 -1.434805 -16.234772 3.345973 -11.340590 23.977721 -0.348790 -10.699831 -9.808333 nan nan nan 1.226039 -5.186195 10.677482 4.963401 -3.177371 5.319564 0.248692 -3.554076 1.383128 0.851630 1.417224 14.069950 -2.854901 -3.005931 21.790804 -26.064153 -0.410788 5.185913 -51.042668 -12.913728 15.276293 5.604498 -50.193262 9.130651 3.552814 -13.118346 -14.522782 30.043579 -0.145844 4.398368 53.916510 -4.192336 12.178722 -12.462153 17.693580 -3.168186 10.191988 5.384569 -1.763089 
71.852142 -88.419449 88.547615 -120.737858 1.145764 80.811247 5.600448 -0.025062 14.946739 -9.125771 -5.814208 48.507290 -3.412826 8.806991 -11.314583 nan nan nan -2.228652 -1.433306 -15.436776 3.298268 -11.362120 23.740804 -1.094542 -10.630341 -9.763748 nan nan nan 1.234821 -4.843237 10.749665 5.003391 -3.261962 5.476767 0.276107 -3.466928 1.332660 0.702545 1.445294 13.874428 -2.528824 -2.792133 21.464001 -26.110712 -0.514960 5.257232 -51.310703 -12.825204 15.078532 5.641287 -49.741908 9.171949 2.849694 -13.086526 -14.570222 30.082725 0.045591 4.420220 53.841068 -3.902282 12.088502 -12.598675 17.906461 -3.170703 10.247579 5.510374 -2.047799 
71.272446 -87.693222 88.672829 -120.777597 1.175708 80.830122 5.775362 -0.084781 13.303382 -8.970687 -4.586184 51.084876 -3.117599 9.178465 -10.963198 nan nan nan -1.973042 -1.418055 -14.592963 3.249445 -11.477581 23.382745 -1.609741 -10.429569 -9.847155 nan nan nan 1.366856 -4.546757 11.029373 5.027937 -3.337742 5.350622 0.261116 -3.331915 1.326529 0.723082 1.252339 13.667826 -2.330450 -2.879678 21.522026 -26.174875 -0.640636 5.253016 -51.410299 -12.535756 14.737242 5.148653 -49.524195 9.108681 2.207134 -13.384699 -13.484910 29.997455 0.332520 4.461332 53.872868 -3.710567 11.897026 -12.703775 18.218606 -3.429164 10.071336 5.754488 -1.940635 
70.678276 -86.977104 88.820030 -120.879775 1.244089 80.737195 5.875128 -0.101785 11.866266 -8.591443 -3.342950 53.378846 -2.804058 9.794885 -11.205884 nan nan nan -1.687725 -1.597342 -13.599212 3.257771 -11.515684 22.972747 -1.949380 -10.148193 -10.099890 nan nan nan 1.599907 -4.205977 11.474593 5.034408 -3.326254 5.144322 0.264688 -3.185007 1.359958 0.766672 0.674764 13.618541 -2.277723 -3.104059 21.445231 -26.395267 -0.807264 5.175814 -51.312400 -12.267298 14.478429 4.363044 -49.224694 9.574476 1.568262 -13.590604 -12.595787 29.847961 0.552642 4.405145 53.824925 -3.498285 11.636230 -12.574020 18.520310 -3.590157 9.689491 6.020376 -1.854926 
70.091385 -86.278435 88.983780 -121.112121 1.302511 80.592661 5.966449 -0.085395 10.523352 -7.978386 -1.864546 55.331583 -2.511692 10.478792 -11.780393 nan nan nan -1.436015 -1.847941 -12.574515 3.343603 -11.487831 22.556496 -2.152656 -9.828727 -10.240500 nan nan nan 1.895995 -3.790898 11.931361 4.975746 -3.224808 5.088820 0.257309 -3.075488 1.336735 0.724803 0.074801 13.595194 -2.200205 -3.221628 21.140478 -26.679906 -0.967520 5.126043 -51.281141 -12.010160 14.366003 3.984061 -49.059376 10.061164 1.091219 -13.460346 -12.331360 29.711301 0.768624 4.296378 53.704658 -3.272879 11.429183 -12.422116 18.925141 -3.703855 9.604918 6.176901 -2.063559 
69.508278 -85.616608 89.131477 -121.299934 1.301424 80.495241 5.971805 -0.173901 9.148790 -7.251542 -0.377925 57.011120 -2.325625 10.869500 -12.475716 nan nan nan -1.226338 -2.099554 -11.628295 3.367069 -11.338727 22.164270 -2.235915 -9.658357 -10.435311 nan nan nan 2.144958 -3.342617 12.315677 4.932408 -3.186184 5.105825 0.219755 -2.945897 1.407660 0.655395 -0.217585 13.340206 -1.979289 -3.398541 20.793028 -26.797674 -1.170676 5.001536 -51.439359 -11.764172 14.480728 3.779514 -48.945555 10.166619 1.249097 -13.575941 -12.378787 29.611771 1.146820 4.149889 53.702753 -3.200777 11.497793 -12.725517 19.410688 -4.164457 9.507497 6.383010 -2.428314 
68.902214 -84.940498 89.279228 -121.371702 1.251267 80.389004 5.930656 -0.366289 7.792039 -6.578976 0.944022 58.430653 -2.071448 11.133460 -12.920729 nan nan nan -1.059576 -2.360459 -10.535579 3.401037 -11.140569 21.555422 -2.369966 -9.683101 -10.623354 nan nan nan 2.250471 -2.976988 12.633993 4.898672 -3.278895 5.173513 0.205554 -2.727570 1.485444 0.638992 -0.427386 13.148531 -1.740991 -3.485154 20.481807 -26.893024 -1.358857 4.855928 -51.542382 -11.557961 14.625163 3.566578 -48.684189 10.236225 1.574781 -13.883532 -12.552009 29.491831 1.587350 4.017573 53.723294 -3.037163 11.681654 -12.945134 19.591935 -4.551949 9.041819 6.824169 -2.667430 
